<svg version="1.1" id="Layer_1" xmlns="http://www.w3.org/2000/svg" xmlns:xlink="http://www.w3.org/1999/xlink" x="0px" y="0px"
	 width="100%" viewBox="0 0 1429 1429" enable-background="new 0 0 1429 1429" xml:space="preserve">
<path fill="none" opacity="1.000000" stroke="none" 
	d="
M690.299133,510.739075 
	C690.800964,510.077087 691.302856,509.415100 691.903442,508.898285 
	C691.903442,508.898285 691.757568,508.800629 692.559326,508.929352 
	C696.460999,508.060059 700.654541,507.489655 699.939514,501.935791 
	C699.939514,501.935791 699.811523,501.847809 700.648132,501.952148 
	C705.912842,502.579956 707.413391,499.707947 707.225586,494.602539 
	C707.663086,494.341339 708.100647,494.080139 709.347473,493.900787 
	C711.874268,492.341553 714.353516,490.696808 716.946289,489.256378 
	C718.413940,488.441040 720.054993,487.925720 721.644165,487.347107 
	C722.319580,487.101166 723.273254,487.275055 723.740662,486.856445 
	C727.760254,483.256012 731.313660,478.983673 735.755310,476.043640 
	C741.480774,472.253845 744.198059,466.700256 747.000000,461.000000 
	C747.000000,461.000000 746.977600,460.986359 747.733704,461.004852 
	C748.442566,460.223267 749.151489,459.441711 750.120544,458.066986 
	C753.463013,455.395447 756.805542,452.723877 760.859436,450.051086 
	C761.549194,449.309326 762.238953,448.567566 763.181396,447.268860 
	C764.330078,446.461273 765.478760,445.653687 767.338928,444.899658 
	C767.891663,444.263855 768.444336,443.628082 769.167297,442.489594 
	C769.475159,442.337555 769.783020,442.185486 770.926086,442.051758 
	C774.550171,440.936218 778.553101,440.445160 781.697021,438.537994 
	C785.178528,436.426056 787.428894,431.583710 791.005005,430.473297 
	C798.592041,428.117432 802.502319,421.931061 807.692139,417.092773 
	C809.006714,415.867249 809.099609,413.331299 809.873962,411.062286 
	C809.873962,411.062286 810.227722,411.021912 810.964722,411.039764 
	C812.257202,409.895905 813.549683,408.752045 815.127136,407.057373 
	C816.625977,405.986786 818.124817,404.916168 820.317932,403.916779 
	C820.892090,403.316528 821.466248,402.716248 822.242554,401.611938 
	C822.700684,401.355560 823.158752,401.099182 824.322449,400.907837 
	C824.887024,400.286438 825.451599,399.665070 826.315002,398.435486 
	C831.982056,394.521973 837.649170,390.608429 844.076355,386.857788 
	C845.052490,385.922119 846.028564,384.986450 847.116821,383.774567 
	C847.116821,383.774567 847.414856,383.764679 848.244507,383.870209 
	C850.256958,383.245972 852.304382,381.997162 854.275696,382.107452 
	C862.099670,382.545319 868.144653,379.644104 872.760681,373.435120 
	C873.397034,372.579193 874.222107,371.863495 874.980286,371.061249 
	C878.991882,375.475525 878.744934,376.561035 874.431152,379.112000 
	C872.375122,380.327820 870.811096,382.367584 868.999207,384.006439 
	C866.464783,386.298889 864.210571,389.139343 861.278503,390.690735 
	C857.983826,392.433868 856.402222,394.407440 856.755005,398.662231 
	C854.107727,400.985687 851.460449,403.309174 848.160339,405.872009 
	C844.044128,409.411652 839.927979,412.951294 835.176025,416.772125 
	C832.794617,418.873657 830.413208,420.975220 827.429443,423.169617 
	C826.905884,423.757263 826.382385,424.344879 825.235901,425.164368 
	C815.438538,433.999878 805.641113,442.835388 795.177734,451.864258 
	C786.792725,459.579437 778.407715,467.294647 769.410156,475.278900 
	C763.931030,480.398254 758.194519,485.270966 753.014526,490.676941 
	C719.023682,526.150879 685.115112,561.703796 651.254333,597.302002 
	C620.459167,629.677246 591.565063,663.702576 563.919922,698.786926 
	C527.521606,744.979980 491.628265,791.566589 458.916534,840.479431 
	C436.425446,874.109619 414.114655,907.874512 392.466827,942.050171 
	C374.661163,970.160400 357.606293,998.763672 340.861847,1027.522949 
	C327.635498,1050.239746 315.111115,1073.381348 302.916534,1096.670410 
	C300.195618,1101.866699 299.518585,1108.416870 299.034668,1114.434937 
	C298.292908,1123.659790 303.609283,1129.875122 311.412415,1133.804565 
	C318.877197,1137.563599 326.603333,1137.918335 333.582123,1132.568970 
	C337.650818,1129.450195 341.556030,1125.987061 344.979706,1122.179688 
	C363.221741,1101.893799 376.951324,1078.377319 391.807068,1055.702148 
	C409.956604,1027.999512 426.725342,999.365723 445.513184,972.114990 
	C467.057312,940.866394 490.063965,910.621338 512.635132,880.088074 
	C521.345337,868.305420 530.567261,856.899170 539.640259,845.387817 
	C541.887878,842.536194 544.090088,839.766174 548.653748,840.405090 
	C583.659119,845.305725 618.538147,842.720459 653.236877,837.576965 
	C732.576477,825.816162 807.621704,800.782166 878.625732,763.530762 
	C924.099182,739.673584 966.268127,710.960571 1005.302551,677.612244 
	C1042.554077,645.787292 1075.774414,610.174744 1105.421265,571.199036 
	C1131.109863,537.427002 1153.487671,501.705963 1169.385986,462.192719 
	C1171.586426,456.723511 1173.510498,451.143127 1175.940430,444.596466 
	C1132.232178,466.985718 1088.133423,484.623993 1041.735962,496.058197 
	C995.472656,507.459290 948.784424,516.342896 900.900818,517.358826 
	C902.562378,515.952942 904.341187,515.113525 906.173096,514.412537 
	C946.259705,499.073029 985.760437,482.433746 1024.043457,462.924042 
	C1068.177734,440.432404 1110.809204,415.451019 1150.288574,385.520752 
	C1191.277222,354.446228 1226.517212,317.381500 1257.771851,276.654846 
	C1285.880859,240.026978 1308.513916,200.172256 1325.575317,157.157013 
	C1335.414429,132.350723 1343.307495,106.999619 1349.520752,81.078117 
	C1351.079468,74.574638 1349.703369,69.144852 1343.574219,66.337791 
	C1339.335815,64.396652 1334.448608,63.313644 1329.770386,62.978905 
	C1290.257935,60.151657 1250.922607,61.858261 1211.620239,66.979530 
	C1161.614990,73.495430 1112.506104,83.802933 1064.225952,98.374130 
	C1018.235901,112.254135 973.468872,129.365387 929.530518,148.637772 
	C874.532471,172.761215 821.772827,201.161331 771.472046,233.991714 
	C728.737793,261.883575 688.090881,292.542053 649.525940,326.043549 
	C609.916992,360.451996 573.126709,397.513123 540.464355,438.557800 
	C518.227539,466.501343 498.913330,496.455750 482.404541,528.135315 
	C468.458496,554.897095 457.202820,582.862915 448.430939,611.691895 
	C435.745270,653.383484 427.247223,695.780518 434.181915,739.650085 
	C436.441803,753.946289 440.382538,767.976807 443.554504,782.128845 
	C444.180481,782.190552 444.806458,782.252258 445.432404,782.313965 
	C446.002777,781.528625 446.557129,780.730957 447.145905,779.959717 
	C457.757843,766.058289 467.988342,751.844177 479.064911,738.323181 
	C506.922791,704.317383 534.196716,669.758179 563.526123,637.054260 
	C591.954956,605.354553 622.499695,575.538513 652.437866,545.213867 
	C663.169617,534.343445 674.843323,524.403076 686.732239,514.344421 
	C687.987061,514.508850 689.241882,514.673279 691.026794,514.907166 
	C690.339844,512.921936 689.934814,511.751404 689.715576,510.718140 
	C689.715576,510.718140 689.581238,510.530182 690.299133,510.739075 
M842.928467,1067.819824 
	C821.987610,1066.413086 801.048828,1064.974976 780.105469,1063.605713 
	C731.405945,1060.421997 682.725525,1056.862793 633.991943,1054.327026 
	C616.600891,1053.421997 599.073914,1054.900146 581.620544,1055.584106 
	C577.459961,1055.747070 572.431580,1057.072388 572.493835,1062.151367 
	C572.557373,1067.336182 577.511230,1068.545776 581.961487,1069.250854 
	C582.289856,1069.302979 582.624512,1069.316406 582.956543,1069.343994 
	C612.167725,1071.778564 641.391052,1074.077148 670.587524,1076.676514 
	C723.348328,1081.373779 776.049377,1086.814087 828.855347,1090.914795 
	C900.093506,1096.446899 971.402588,1101.073730 1042.697754,1105.841553 
	C1047.834473,1106.184937 1053.112427,1104.551270 1058.313354,1103.761963 
	C1063.639893,1102.953491 1066.014526,1099.088745 1066.552002,1094.396362 
	C1067.104126,1089.575562 1063.618286,1086.296021 1059.630493,1085.084473 
	C1053.541748,1083.234619 1047.135742,1081.954346 1040.788208,1081.502686 
	C975.156433,1076.832642 909.509338,1072.377808 842.928467,1067.819824 
M823.699585,959.576904 
	C837.137695,960.799988 850.559692,962.248108 864.016663,963.207214 
	C920.833862,967.256897 977.657166,971.223572 1034.487305,975.087402 
	C1057.417114,976.646423 1080.371826,977.837891 1103.311890,979.251343 
	C1110.885498,979.717896 1116.407471,975.865845 1121.101929,970.677612 
	C1125.467407,965.852966 1125.044922,960.908447 1119.420166,957.699463 
	C1115.390747,955.400696 1110.510010,953.932312 1105.876953,953.495544 
	C1097.106445,952.668518 1088.224976,953.109924 1079.417480,952.568726 
	C1026.380371,949.309570 973.373657,945.499756 920.314087,942.677002 
	C844.798462,938.659546 769.249451,935.260925 693.705200,931.804810 
	C683.753174,931.349609 673.722595,931.785706 663.775146,932.479919 
	C659.964111,932.745911 654.234924,932.949890 654.091309,938.315002 
	C653.960693,943.195251 659.044312,944.782837 663.076538,945.554871 
	C671.072266,947.085693 679.155151,948.418152 687.263184,949.063416 
	C732.427368,952.657349 777.609985,956.020813 823.699585,959.576904 
M1039.270386,1033.573975 
	C1054.812988,1032.786621 1070.355469,1031.999146 1085.898071,1031.211792 
	C1073.130615,1027.970215 1060.417969,1025.193237 1047.557861,1023.622559 
	C1000.445801,1017.868286 953.376892,1011.483765 906.119507,1007.265320 
	C843.252625,1001.653564 780.210571,998.028931 717.271362,993.191772 
	C683.124390,990.567383 649.054382,991.342651 614.981201,993.937622 
	C611.762085,994.182739 608.474548,995.328857 605.517883,996.701172 
	C602.694214,998.011658 602.096069,1000.755432 604.909363,1002.583862 
	C607.734131,1004.419739 611.001160,1006.093689 614.272400,1006.629456 
	C625.279663,1008.432251 636.339172,1010.097656 647.443420,1011.093750 
	C684.594299,1014.426514 721.749573,1017.766907 758.946960,1020.510986 
	C815.089233,1024.652710 871.230896,1029.033081 927.445190,1031.887573 
	C964.335388,1033.760620 1001.353088,1033.122559 1039.270386,1033.573975 
M852.606018,390.798248 
	C852.213928,390.794006 851.821777,390.789734 851.429749,390.785461 
	C851.428162,390.948212 851.415710,391.252411 851.426636,391.253265 
	C851.816895,391.283386 852.209290,391.285187 852.606018,390.798248 
z"/>
<path fill="#030303" opacity="1.000000" stroke="none" 
	d="
M1414.047607,809.992432 
	C1420.849121,818.901367 1420.489258,828.489441 1417.411865,838.706543 
	C1401.872437,890.299133 1386.493896,941.940308 1371.129272,993.585327 
	C1353.157104,1053.995483 1335.148926,1114.395508 1317.355225,1174.858398 
	C1297.635742,1241.865112 1278.138428,1308.937256 1258.554199,1375.983887 
	C1257.388794,1379.973389 1256.289551,1383.982910 1255.194946,1387.992676 
	C1248.673340,1411.881836 1227.642090,1423.961060 1204.103760,1416.828979 
	C1174.795776,1407.948730 1145.733398,1398.243408 1116.342651,1389.655029 
	C1089.191406,1381.721313 1061.810303,1374.546387 1034.418701,1367.469727 
	C968.130432,1350.344116 901.187073,1336.069824 833.913025,1323.511963 
	C737.567139,1305.527100 640.523804,1292.731812 542.757385,1285.011963 
	C428.927643,1276.023682 314.962830,1270.792114 200.809799,1269.830078 
	C148.506836,1269.389160 96.194107,1270.141846 44.022778,1274.868164 
	C36.956028,1275.508301 29.643879,1275.326416 22.634022,1274.271362 
	C11.794840,1272.640137 5.124956,1265.538452 1.328726,1255.155518 
	C1.000000,1251.638672 1.000000,1248.277466 1.000021,1244.458008 
	C21.199148,1208.270142 41.160576,1172.403076 61.660709,1136.846680 
	C84.529541,1097.182007 107.446251,1057.532104 131.158218,1018.369873 
	C154.610336,979.636902 178.927505,941.423401 203.167984,903.173889 
	C215.554474,883.629028 228.206970,864.226257 241.477493,845.276306 
	C252.404816,829.672363 265.015625,815.477173 281.947876,805.828186 
	C292.213257,799.978333 303.243011,798.517517 314.767914,799.415344 
	C315.855316,799.500000 316.911102,799.990479 318.530884,800.447510 
	C315.624298,804.152893 312.546906,807.227966 310.470154,810.873169 
	C302.317596,825.182800 294.253662,839.552612 286.570160,854.118042 
	C266.307129,892.530273 246.167984,931.008545 226.152985,969.550598 
	C206.143250,1008.082581 186.073181,1046.587402 166.534454,1085.358643 
	C149.848694,1118.468506 133.874878,1151.937134 117.607086,1185.257324 
	C116.974159,1186.553955 116.559204,1187.957031 115.682259,1190.254761 
	C469.576935,1174.048462 816.750305,1211.396851 1158.156006,1307.969238 
	C1208.611084,1155.843628 1259.006714,1003.897705 1309.553467,851.495605 
	C1307.911987,851.313843 1307.146240,851.137451 1306.385864,851.157898 
	C1227.340942,853.287842 1148.459717,849.542847 1069.613281,844.566711 
	C1022.027893,841.563538 974.640137,836.649292 927.533203,829.267395 
	C917.581482,827.707886 907.816406,824.957947 897.965271,822.756531 
	C897.859680,822.141663 897.754028,821.526855 897.648376,820.911987 
	C899.501648,819.184631 901.228027,817.291931 903.228760,815.756775 
	C915.943542,806.000366 930.698242,800.943481 946.364929,800.276550 
	C970.981506,799.228516 995.661499,799.208069 1020.308838,799.424438 
	C1136.465454,800.443909 1252.614502,800.787231 1368.740967,797.232605 
	C1371.904541,797.135742 1375.066772,796.955261 1378.225830,796.755066 
	C1388.162354,796.125427 1398.146729,795.234009 1406.665039,803.291748 
	C1406.324219,809.782593 1406.409180,809.876221 1412.591675,809.986694 
	C1413.076904,809.995361 1413.562256,809.990784 1414.047607,809.992432 
z"/>
<path fill="#020202" opacity="1.000000" stroke="none" 
	d="
M847.414856,383.764709 
	C847.414856,383.764679 847.116821,383.774567 846.732910,383.957947 
	C845.338074,384.992493 844.327148,385.843689 843.316284,386.694885 
	C837.649170,390.608429 831.982056,394.521973 825.856323,398.797211 
	C824.804016,399.720215 824.210449,400.281494 823.616882,400.842773 
	C823.158752,401.099182 822.700684,401.355560 821.836426,401.921753 
	C820.828125,402.769592 820.225891,403.307587 819.623657,403.845581 
	C818.124817,404.916168 816.625977,405.986786 814.660950,407.411560 
	C812.872437,408.851166 811.550110,409.936554 810.227722,411.021912 
	C810.227722,411.021912 809.873962,411.062286 809.462402,411.312988 
	C796.064209,421.720245 783.077515,431.876831 770.090820,442.033447 
	C769.783020,442.185486 769.475159,442.337555 768.768494,442.794861 
	C767.788940,443.682129 767.208191,444.264130 766.627441,444.846130 
	C765.478760,445.653687 764.330078,446.461273 762.748657,447.600861 
	C761.593323,448.639343 760.870667,449.345825 760.148010,450.052307 
	C756.805542,452.723877 753.463013,455.395447 749.672974,458.434448 
	C748.476196,459.530090 747.726929,460.258240 746.977661,460.986389 
	C746.977600,460.986359 747.000000,461.000000 746.665405,461.076416 
	C733.733276,472.041565 721.135742,482.930267 708.538208,493.818970 
	C708.100647,494.080139 707.663086,494.341339 706.804688,494.921722 
	C704.193054,497.443207 702.002258,499.645477 699.811523,501.847778 
	C699.811523,501.847809 699.939514,501.935791 699.565552,501.947510 
	C696.713562,504.239685 694.235535,506.520142 691.757568,508.800598 
	C691.757568,508.800629 691.903442,508.898285 691.563416,508.889862 
	C690.676025,509.431030 690.128601,509.980591 689.581238,510.530182 
	C689.581238,510.530182 689.715576,510.718140 689.340271,510.778748 
	C688.005676,511.905640 687.046448,512.971924 686.087158,514.038208 
	C674.843323,524.403076 663.169617,534.343445 652.437866,545.213867 
	C622.499695,575.538513 591.954956,605.354553 563.526123,637.054260 
	C534.196716,669.758179 506.922791,704.317383 479.064911,738.323181 
	C467.988342,751.844177 457.757843,766.058289 447.145905,779.959717 
	C446.557129,780.730957 446.002777,781.528625 445.432404,782.313965 
	C444.806458,782.252258 444.180481,782.190552 443.554504,782.128845 
	C440.382538,767.976807 436.441803,753.946289 434.181915,739.650085 
	C427.247223,695.780518 435.745270,653.383484 448.430939,611.691895 
	C457.202820,582.862915 468.458496,554.897095 482.404541,528.135315 
	C498.913330,496.455750 518.227539,466.501343 540.464355,438.557800 
	C573.126709,397.513123 609.916992,360.451996 649.525940,326.043549 
	C688.090881,292.542053 728.737793,261.883575 771.472046,233.991714 
	C821.772827,201.161331 874.532471,172.761215 929.530518,148.637772 
	C973.468872,129.365387 1018.235901,112.254135 1064.225952,98.374130 
	C1112.506104,83.802933 1161.614990,73.495430 1211.620239,66.979530 
	C1250.922607,61.858261 1290.257935,60.151657 1329.770386,62.978905 
	C1334.448608,63.313644 1339.335815,64.396652 1343.574219,66.337791 
	C1349.703369,69.144852 1351.079468,74.574638 1349.520752,81.078117 
	C1343.307495,106.999619 1335.414429,132.350723 1325.575317,157.157013 
	C1308.513916,200.172256 1285.880859,240.026978 1257.771851,276.654846 
	C1226.517212,317.381500 1191.277222,354.446228 1150.288574,385.520752 
	C1110.809204,415.451019 1068.177734,440.432404 1024.043457,462.924042 
	C985.760437,482.433746 946.259705,499.073029 906.173096,514.412537 
	C904.341187,515.113525 902.562378,515.952942 900.900818,517.358826 
	C948.784424,516.342896 995.472656,507.459290 1041.735962,496.058197 
	C1088.133423,484.623993 1132.232178,466.985718 1175.940430,444.596466 
	C1173.510498,451.143127 1171.586426,456.723511 1169.385986,462.192719 
	C1153.487671,501.705963 1131.109863,537.427002 1105.421265,571.199036 
	C1075.774414,610.174744 1042.554077,645.787292 1005.302551,677.612244 
	C966.268127,710.960571 924.099182,739.673584 878.625732,763.530762 
	C807.621704,800.782166 732.576477,825.816162 653.236877,837.576965 
	C618.538147,842.720459 583.659119,845.305725 548.653748,840.405090 
	C544.090088,839.766174 541.887878,842.536194 539.640259,845.387817 
	C530.567261,856.899170 521.345337,868.305420 512.635132,880.088074 
	C490.063965,910.621338 467.057312,940.866394 445.513184,972.114990 
	C426.725342,999.365723 409.956604,1027.999512 391.807068,1055.702148 
	C376.951324,1078.377319 363.221741,1101.893799 344.979706,1122.179688 
	C341.556030,1125.987061 337.650818,1129.450195 333.582123,1132.568970 
	C326.603333,1137.918335 318.877197,1137.563599 311.412415,1133.804565 
	C303.609283,1129.875122 298.292908,1123.659790 299.034668,1114.434937 
	C299.518585,1108.416870 300.195618,1101.866699 302.916534,1096.670410 
	C315.111115,1073.381348 327.635498,1050.239746 340.861847,1027.522949 
	C357.606293,998.763672 374.661163,970.160400 392.466827,942.050171 
	C414.114655,907.874512 436.425446,874.109619 458.916534,840.479431 
	C491.628265,791.566589 527.521606,744.979980 563.919922,698.786926 
	C591.565063,663.702576 620.459167,629.677246 651.254333,597.302002 
	C685.115112,561.703796 719.023682,526.150879 753.014526,490.676941 
	C758.194519,485.270966 763.931030,480.398254 770.106689,475.164734 
	C773.981445,473.557159 777.665649,472.651123 780.229004,470.443634 
	C785.029358,466.309662 789.286011,461.516510 793.533813,456.786530 
	C794.725342,455.459869 795.096313,453.396362 795.843689,451.670898 
	C805.641113,442.835388 815.438538,433.999878 825.880127,425.059387 
	C827.026794,424.328522 827.529297,423.702637 828.031799,423.076752 
	C830.413208,420.975220 832.794617,418.873657 835.672852,416.969299 
	C837.964600,416.670074 839.949768,416.498077 841.502014,415.587799 
	C843.114563,414.642151 844.091003,412.296326 845.730347,411.776825 
	C849.228027,410.668457 849.196472,408.376404 848.813171,405.632629 
	C851.460449,403.309174 854.107727,400.985687 857.224854,398.283936 
	C865.227051,391.878204 872.510803,385.504730 880.334778,379.883148 
	C914.243713,355.519775 948.243103,331.280365 982.363037,307.213409 
	C991.976257,300.432587 1002.111084,294.391144 1012.366028,288.069794 
	C1016.050537,286.025970 1019.375793,283.922913 1022.700989,281.819885 
	C1022.395691,281.315979 1022.090393,280.812073 1021.785156,280.308167 
	C1018.478943,282.228729 1015.172791,284.149292 1011.500305,286.202332 
	C966.272766,309.191040 922.131836,333.306824 880.267456,361.384796 
	C869.263245,368.765198 858.362915,376.300537 847.414856,383.764709 
z"/>
<path fill="#080909" opacity="1.000000" stroke="none" 
	d="
M843.397461,1067.841309 
	C909.509338,1072.377808 975.156433,1076.832642 1040.788208,1081.502686 
	C1047.135742,1081.954346 1053.541748,1083.234619 1059.630493,1085.084473 
	C1063.618286,1086.296021 1067.104126,1089.575562 1066.552002,1094.396362 
	C1066.014526,1099.088745 1063.639893,1102.953491 1058.313354,1103.761963 
	C1053.112427,1104.551270 1047.834473,1106.184937 1042.697754,1105.841553 
	C971.402588,1101.073730 900.093506,1096.446899 828.855347,1090.914795 
	C776.049377,1086.814087 723.348328,1081.373779 670.587524,1076.676514 
	C641.391052,1074.077148 612.167725,1071.778564 582.956543,1069.343994 
	C582.624512,1069.316406 582.289856,1069.302979 581.961487,1069.250854 
	C577.511230,1068.545776 572.557373,1067.336182 572.493835,1062.151367 
	C572.431580,1057.072388 577.459961,1055.747070 581.620544,1055.584106 
	C599.073914,1054.900146 616.600891,1053.421997 633.991943,1054.327026 
	C682.725525,1056.862793 731.405945,1060.421997 780.105469,1063.605713 
	C801.048828,1064.974976 821.987610,1066.413086 843.397461,1067.841309 
z"/>
<path fill="#080909" opacity="1.000000" stroke="none" 
	d="
M823.242920,959.520020 
	C777.609985,956.020813 732.427368,952.657349 687.263184,949.063416 
	C679.155151,948.418152 671.072266,947.085693 663.076538,945.554871 
	C659.044312,944.782837 653.960693,943.195251 654.091309,938.315002 
	C654.234924,932.949890 659.964111,932.745911 663.775146,932.479919 
	C673.722595,931.785706 683.753174,931.349609 693.705200,931.804810 
	C769.249451,935.260925 844.798462,938.659546 920.314087,942.677002 
	C973.373657,945.499756 1026.380371,949.309570 1079.417480,952.568726 
	C1088.224976,953.109924 1097.106445,952.668518 1105.876953,953.495544 
	C1110.510010,953.932312 1115.390747,955.400696 1119.420166,957.699463 
	C1125.044922,960.908447 1125.467407,965.852966 1121.101929,970.677612 
	C1116.407471,975.865845 1110.885498,979.717896 1103.311890,979.251343 
	C1080.371826,977.837891 1057.417114,976.646423 1034.487305,975.087402 
	C977.657166,971.223572 920.833862,967.256897 864.016663,963.207214 
	C850.559692,962.248108 837.137695,960.799988 823.242920,959.520020 
z"/>
<path fill="#090A09" opacity="1.000000" stroke="none" 
	d="
M1038.791992,1033.591553 
	C1001.353088,1033.122559 964.335388,1033.760620 927.445190,1031.887573 
	C871.230896,1029.033081 815.089233,1024.652710 758.946960,1020.510986 
	C721.749573,1017.766907 684.594299,1014.426514 647.443420,1011.093750 
	C636.339172,1010.097656 625.279663,1008.432251 614.272400,1006.629456 
	C611.001160,1006.093689 607.734131,1004.419739 604.909363,1002.583862 
	C602.096069,1000.755432 602.694214,998.011658 605.517883,996.701172 
	C608.474548,995.328857 611.762085,994.182739 614.981201,993.937622 
	C649.054382,991.342651 683.124390,990.567383 717.271362,993.191772 
	C780.210571,998.028931 843.252625,1001.653564 906.119507,1007.265320 
	C953.376892,1011.483765 1000.445801,1017.868286 1047.557861,1023.622559 
	C1060.417969,1025.193237 1073.130615,1027.970215 1085.898071,1031.211792 
	C1070.355469,1031.999146 1054.812988,1032.786621 1038.791992,1033.591553 
z"/>
<path fill="none" opacity="1.000000" stroke="none" 
	d="
M847.829712,383.817444 
	C858.362915,376.300537 869.263245,368.765198 880.267456,361.384796 
	C922.131836,333.306824 966.272766,309.191040 1011.577881,286.684418 
	C1012.016785,287.359589 1012.011780,287.685089 1012.006714,288.010559 
	C1002.111084,294.391144 991.976257,300.432587 982.363037,307.213409 
	C948.243103,331.280365 914.243713,355.519775 880.334778,379.883148 
	C872.510803,385.504730 865.227051,391.878204 857.358154,397.979431 
	C856.402222,394.407440 857.983826,392.433868 861.278503,390.690735 
	C864.210571,389.139343 866.464783,386.298889 868.999207,384.006439 
	C870.811096,382.367584 872.375122,380.327820 874.431152,379.112000 
	C878.744934,376.561035 878.991882,375.475525 874.980286,371.061249 
	C874.222107,371.863495 873.397034,372.579193 872.760681,373.435120 
	C868.144653,379.644104 862.099670,382.545319 854.275696,382.107452 
	C852.304382,381.997162 850.256958,383.245972 847.829712,383.817444 
z"/>
<path fill="none" opacity="1.000000" stroke="none" 
	d="
M770.508423,442.042603 
	C783.077515,431.876831 796.064209,421.720245 809.402344,411.480560 
	C809.099609,413.331299 809.006714,415.867249 807.692139,417.092773 
	C802.502319,421.931061 798.592041,428.117432 791.005005,430.473297 
	C787.428894,431.583710 785.178528,436.426056 781.697021,438.537994 
	C778.553101,440.445160 774.550171,440.936218 770.508423,442.042603 
z"/>
<path fill="none" opacity="1.000000" stroke="none" 
	d="
M708.942871,493.859863 
	C721.135742,482.930267 733.733276,472.041565 746.658813,461.064972 
	C744.198059,466.700256 741.480774,472.253845 735.755310,476.043640 
	C731.313660,478.983673 727.760254,483.256012 723.740662,486.856445 
	C723.273254,487.275055 722.319580,487.101166 721.644165,487.347107 
	C720.054993,487.925720 718.413940,488.441040 716.946289,489.256378 
	C714.353516,490.696808 711.874268,492.341553 708.942871,493.859863 
z"/>
<path fill="#1E201C" opacity="1.000000" stroke="none" 
	d="
M795.510742,451.767578 
	C795.096313,453.396362 794.725342,455.459869 793.533813,456.786530 
	C789.286011,461.516510 785.029358,466.309662 780.229004,470.443634 
	C777.665649,472.651123 773.981445,473.557159 770.412964,475.030212 
	C778.407715,467.294647 786.792725,459.579437 795.510742,451.767578 
z"/>
<path fill="#232621" opacity="1.000000" stroke="none" 
	d="
M848.486755,405.752319 
	C849.196472,408.376404 849.228027,410.668457 845.730347,411.776825 
	C844.091003,412.296326 843.114563,414.642151 841.502014,415.587799 
	C839.949768,416.498077 837.964600,416.670074 835.990723,416.828674 
	C839.927979,412.951294 844.044128,409.411652 848.486755,405.752319 
z"/>
<path fill="#1B1E1B" opacity="1.000000" stroke="none" 
	d="
M1414.105347,809.644470 
	C1413.562256,809.990784 1413.076904,809.995361 1412.591675,809.986694 
	C1406.409180,809.876221 1406.324219,809.782593 1406.986572,803.454590 
	C1409.381470,805.144226 1411.772339,807.220337 1414.105347,809.644470 
z"/>
<path fill="none" opacity="1.000000" stroke="none" 
	d="
M700.229858,501.899963 
	C702.002258,499.645477 704.193054,497.443207 706.707886,495.163513 
	C707.413391,499.707947 705.912842,502.579956 700.229858,501.899963 
z"/>
<path fill="none" opacity="1.000000" stroke="none" 
	d="
M692.158447,508.864990 
	C694.235535,506.520142 696.713562,504.239685 699.523193,501.882446 
	C700.654541,507.489655 696.460999,508.060059 692.158447,508.864990 
z"/>
<path fill="none" opacity="1.000000" stroke="none" 
	d="
M686.409668,514.191284 
	C687.046448,512.971924 688.005676,511.905640 689.247314,510.710144 
	C689.934814,511.751404 690.339844,512.921936 691.026794,514.907166 
	C689.241882,514.673279 687.987061,514.508850 686.409668,514.191284 
z"/>
<path fill="none" opacity="1.000000" stroke="none" 
	d="
M810.596191,411.030823 
	C811.550110,409.936554 812.872437,408.851166 814.518433,407.686981 
	C813.549683,408.752045 812.257202,409.895905 810.596191,411.030823 
z"/>
<path fill="none" opacity="1.000000" stroke="none" 
	d="
M843.696289,386.776337 
	C844.327148,385.843689 845.338074,384.992493 846.676758,384.096039 
	C846.028564,384.986450 845.052490,385.922119 843.696289,386.776337 
z"/>
<path fill="none" opacity="1.000000" stroke="none" 
	d="
M760.503723,450.051697 
	C760.870667,449.345825 761.593323,448.639343 762.622314,447.879333 
	C762.238953,448.567566 761.549194,449.309326 760.503723,450.051697 
z"/>
<path fill="none" opacity="1.000000" stroke="none" 
	d="
M747.355713,460.995605 
	C747.726929,460.258240 748.476196,459.530090 749.542908,458.731018 
	C749.151489,459.441711 748.442566,460.223267 747.355713,460.995605 
z"/>
<path fill="none" opacity="1.000000" stroke="none" 
	d="
M766.983154,444.872894 
	C767.208191,444.264130 767.788940,443.682129 768.683350,443.046204 
	C768.444336,443.628082 767.891663,444.263855 766.983154,444.872894 
z"/>
<path fill="none" opacity="1.000000" stroke="none" 
	d="
M689.940186,510.634644 
	C690.128601,509.980591 690.676025,509.431030 691.514038,508.817261 
	C691.302856,509.415100 690.800964,510.077087 689.940186,510.634644 
z"/>
<path fill="#232621" opacity="1.000000" stroke="none" 
	d="
M827.730591,423.123169 
	C827.529297,423.702637 827.026794,424.328522 826.191589,424.943481 
	C826.382385,424.344879 826.905884,423.757263 827.730591,423.123169 
z"/>
<path fill="none" opacity="1.000000" stroke="none" 
	d="
M819.970825,403.881165 
	C820.225891,403.307587 820.828125,402.769592 821.735352,402.173798 
	C821.466248,402.716248 820.892090,403.316528 819.970825,403.881165 
z"/>
<path fill="none" opacity="1.000000" stroke="none" 
	d="
M823.969666,400.875305 
	C824.210449,400.281494 824.804016,399.720215 825.706909,399.101318 
	C825.451599,399.665070 824.887024,400.286438 823.969666,400.875305 
z"/>
<path fill="none" opacity="1.000000" stroke="none" 
	d="
M852.603760,391.044617 
	C852.209290,391.285187 851.816895,391.283386 851.426636,391.253265 
	C851.415710,391.252411 851.428162,390.948212 851.429688,390.785461 
	C851.821777,390.789734 852.213928,390.794006 852.603760,391.044617 
z"/>
<path fill="#979797" opacity="1.000000" stroke="none" 
	d="
M1012.366028,288.069824 
	C1012.011780,287.685089 1012.016785,287.359589 1011.944214,286.552002 
	C1015.172791,284.149292 1018.478943,282.228729 1021.785156,280.308167 
	C1022.090393,280.812073 1022.395691,281.315979 1022.700989,281.819885 
	C1019.375793,283.922913 1016.050537,286.025970 1012.366028,288.069824 
z"/>
</svg>